<?xml version="1.0" encoding="UTF-8" standalone="no"?>
<!DOCTYPE svg PUBLIC "-//W3C//DTD SVG 1.1//EN" "http://www.w3.org/Graphics/SVG/1.1/DTD/svg11.dtd">
<svg width="100%" height="100%" viewBox="0 0 2618 963" version="1.1" xmlns="http://www.w3.org/2000/svg" xmlns:xlink="http://www.w3.org/1999/xlink" xml:space="preserve" xmlns:serif="http://www.serif.com/" style="fill-rule:evenodd;clip-rule:evenodd;stroke-linejoin:round;stroke-miterlimit:2;">
    <g transform="matrix(1,0,0,1,-282,-1793)">
        <g>
            <g transform="matrix(1.60969,0,0,1.60969,-1704.65,-1641.5)">
                <text x="1303.75px" y="2559.76px" style="font-family:'Atma-Regular', 'Atma';font-size:600px;fill:white;">y</text>
                <text x="1570.75px" y="2559.76px" style="font-family:'Atma-Regular', 'Atma';font-size:400px;fill:white;">um<tspan x="2017.15px " y="2559.76px ">y</tspan>um<tspan x="2641.55px " y="2559.76px ">y</tspan></text>
            </g>
            <g transform="matrix(1.80712,0,0,1.80712,-1994.89,-1945.87)">
                <path d="M1272.79,2127.73C1272.79,2127.73 1403.3,2058.31 1414.4,2144.39C1414.4,2144.39 1386.64,2102.74 1272.79,2127.73Z" style="fill:white;"/>
            </g>
            <g transform="matrix(-1.8066,-0.043377,-0.043377,1.8066,3302.72,-1863.6)">
                <path d="M1284.93,2123.45C1284.93,2123.45 1403.3,2058.31 1414.4,2144.39C1414.4,2144.39 1373.77,2102.85 1284.93,2123.45Z" style="fill:white;"/>
            </g>
        </g>
    </g>
</svg>
